<svg width="123" height="40" viewBox="0 0 123 40" fill="none" xmlns="http://www.w3.org/2000/svg">
<rect y="0.5" width="39" height="39" rx="19.5" fill="#00FFD1"/>
<path d="M20.6725 15.488C22.1392 15.488 23.3199 15.928 24.2145 16.808C25.1239 17.688 25.5785 18.9933 25.5785 20.724V27.5H22.1465V21.252C22.1465 20.3133 21.9412 19.6167 21.5305 19.162C21.1199 18.6927 20.5259 18.458 19.7485 18.458C18.8832 18.458 18.1939 18.7293 17.6805 19.272C17.1672 19.8 16.9105 20.592 16.9105 21.648V27.5H13.4785V11.176H16.9105V16.896C17.3652 16.4413 17.9152 16.0967 18.5605 15.862C19.2059 15.6127 19.9099 15.488 20.6725 15.488Z" fill="black"/>
<path d="M53.27 29.74C51.69 29.74 50.16 29.5 48.68 29.02C47.22 28.52 46.07 27.88 45.23 27.1L46.34 24.76C47.14 25.48 48.16 26.07 49.4 26.53C50.66 26.97 51.95 27.19 53.27 27.19C55.01 27.19 56.31 26.9 57.17 26.32C58.03 25.72 58.46 24.93 58.46 23.95C58.46 23.23 58.22 22.65 57.74 22.21C57.28 21.75 56.7 21.4 56 21.16C55.32 20.92 54.35 20.65 53.09 20.35C51.51 19.97 50.23 19.59 49.25 19.21C48.29 18.83 47.46 18.25 46.76 17.47C46.08 16.67 45.74 15.6 45.74 14.26C45.74 13.14 46.03 12.13 46.61 11.23C47.21 10.33 48.11 9.61 49.31 9.07C50.51 8.53 52 8.26 53.78 8.26C55.02 8.26 56.24 8.42 57.44 8.74C58.64 9.06 59.67 9.52 60.53 10.12L59.54 12.52C58.66 11.96 57.72 11.54 56.72 11.26C55.72 10.96 54.74 10.81 53.78 10.81C52.08 10.81 50.8 11.12 49.94 11.74C49.1 12.36 48.68 13.16 48.68 14.14C48.68 14.86 48.92 15.45 49.4 15.91C49.88 16.35 50.47 16.7 51.17 16.96C51.89 17.2 52.86 17.46 54.08 17.74C55.66 18.12 56.93 18.5 57.89 18.88C58.85 19.26 59.67 19.84 60.35 20.62C61.05 21.4 61.4 22.45 61.4 23.77C61.4 24.87 61.1 25.88 60.5 26.8C59.9 27.7 58.99 28.42 57.77 28.96C56.55 29.48 55.05 29.74 53.27 29.74ZM73.8528 13.45C75.8728 13.45 77.4728 14.04 78.6528 15.22C79.8528 16.38 80.4528 18.09 80.4528 20.35V29.5H77.5728V20.68C77.5728 19.14 77.2028 17.98 76.4628 17.2C75.7228 16.42 74.6628 16.03 73.2828 16.03C71.7228 16.03 70.4928 16.49 69.5928 17.41C68.6928 18.31 68.2428 19.61 68.2428 21.31V29.5H65.3628V7.24H68.2428V15.85C68.8428 15.09 69.6228 14.5 70.5828 14.08C71.5628 13.66 72.6528 13.45 73.8528 13.45ZM92.6806 29.68C91.1006 29.68 89.6806 29.33 88.4206 28.63C87.1606 27.93 86.1706 26.97 85.4506 25.75C84.7506 24.51 84.4006 23.11 84.4006 21.55C84.4006 19.99 84.7506 18.6 85.4506 17.38C86.1706 16.14 87.1606 15.18 88.4206 14.5C89.6806 13.8 91.1006 13.45 92.6806 13.45C94.2606 13.45 95.6706 13.8 96.9106 14.5C98.1706 15.18 99.1506 16.14 99.8506 17.38C100.571 18.6 100.931 19.99 100.931 21.55C100.931 23.11 100.571 24.51 99.8506 25.75C99.1506 26.97 98.1706 27.93 96.9106 28.63C95.6706 29.33 94.2606 29.68 92.6806 29.68ZM92.6806 27.16C93.7006 27.16 94.6106 26.93 95.4106 26.47C96.2306 25.99 96.8706 25.33 97.3306 24.49C97.7906 23.63 98.0206 22.65 98.0206 21.55C98.0206 20.45 97.7906 19.48 97.3306 18.64C96.8706 17.78 96.2306 17.12 95.4106 16.66C94.6106 16.2 93.7006 15.97 92.6806 15.97C91.6606 15.97 90.7406 16.2 89.9206 16.66C89.1206 17.12 88.4806 17.78 88.0006 18.64C87.5406 19.48 87.3106 20.45 87.3106 21.55C87.3106 22.65 87.5406 23.63 88.0006 24.49C88.4806 25.33 89.1206 25.99 89.9206 26.47C90.7406 26.93 91.6606 27.16 92.6806 27.16ZM113.344 13.45C114.884 13.45 116.264 13.79 117.484 14.47C118.704 15.15 119.654 16.1 120.334 17.32C121.034 18.54 121.384 19.95 121.384 21.55C121.384 23.15 121.034 24.57 120.334 25.81C119.654 27.03 118.704 27.98 117.484 28.66C116.264 29.34 114.884 29.68 113.344 29.68C112.204 29.68 111.154 29.46 110.194 29.02C109.254 28.58 108.454 27.94 107.794 27.1V35.32H104.914V13.6H107.674V16.12C108.314 15.24 109.124 14.58 110.104 14.14C111.084 13.68 112.164 13.45 113.344 13.45ZM113.104 27.16C114.124 27.16 115.034 26.93 115.834 26.47C116.654 25.99 117.294 25.33 117.754 24.49C118.234 23.63 118.474 22.65 118.474 21.55C118.474 20.45 118.234 19.48 117.754 18.64C117.294 17.78 116.654 17.12 115.834 16.66C115.034 16.2 114.124 15.97 113.104 15.97C112.104 15.97 111.194 16.21 110.374 16.69C109.574 17.15 108.934 17.8 108.454 18.64C107.994 19.48 107.764 20.45 107.764 21.55C107.764 22.65 107.994 23.63 108.454 24.49C108.914 25.33 109.554 25.99 110.374 26.47C111.194 26.93 112.104 27.16 113.104 27.16Z" fill="black"/>
</svg>
