<svg width="134" height="33" viewBox="0 0 134 33" fill="none" xmlns="http://www.w3.org/2000/svg">
<g clip-path="url(#clip0_2_829)">
<path d="M7.52094 32.3234V30.2044C7.53335 30.0262 7.50746 29.8474 7.44499 29.6799C7.38252 29.5124 7.28491 29.3601 7.15867 29.2332C7.03242 29.1062 6.88043 29.0074 6.71283 28.9435C6.54523 28.8795 6.36586 28.8519 6.18668 28.8623C5.95213 28.847 5.71776 28.8947 5.50803 29.0003C5.2983 29.1059 5.1209 29.2656 4.99435 29.4627C4.879 29.2715 4.71394 29.1148 4.51659 29.0092C4.31924 28.9035 4.0969 28.8528 3.873 28.8623C3.67784 28.8525 3.48348 28.8936 3.3092 28.9816C3.13491 29.0696 2.98675 29.2013 2.8794 29.3638V28.9471H2.1413V32.3234H2.8865V30.4657C2.87065 30.3503 2.88062 30.2328 2.9157 30.1216C2.95079 30.0104 3.01012 29.9083 3.08945 29.8226C3.16878 29.7369 3.26616 29.6697 3.37462 29.6258C3.48308 29.5819 3.59995 29.5624 3.71686 29.5687C4.20657 29.5687 4.45497 29.8865 4.45497 30.4587V32.3375H5.20017V30.4657C5.18497 30.3504 5.1954 30.2331 5.23072 30.1222C5.26604 30.0113 5.3254 29.9095 5.4046 29.824C5.4838 29.7384 5.5809 29.6712 5.68906 29.6271C5.79722 29.583 5.91379 29.563 6.03054 29.5687C6.53444 29.5687 6.77574 29.8865 6.77574 30.4587V32.3375L7.52094 32.3234ZM18.5464 28.9471H17.3328V27.9229H16.5876V28.9471H15.9133V29.6181H16.6018V31.1721C16.6018 31.9561 16.9069 32.4223 17.7799 32.4223C18.106 32.4234 18.4258 32.3328 18.7025 32.1609L18.4896 31.5323C18.2917 31.6498 18.067 31.7154 17.8367 31.723C17.4818 31.723 17.347 31.497 17.347 31.1579V29.6181H18.5535L18.5464 28.9471ZM24.8415 28.8623C24.6616 28.8571 24.4835 28.9002 24.3261 28.9872C24.1688 29.0743 24.0379 29.2019 23.9473 29.3568V28.9471H23.2163V32.3234H23.9544V30.4304C23.9544 29.8724 24.1957 29.5616 24.6641 29.5616C24.822 29.5595 24.9787 29.5883 25.1254 29.6464L25.3525 28.94C25.184 28.88 25.0064 28.849 24.8274 28.8482L24.8415 28.8623ZM15.3243 29.2155C14.9065 28.9683 14.4261 28.8457 13.9403 28.8623C13.0816 28.8623 12.5209 29.272 12.5209 29.943C12.5209 30.494 12.9325 30.833 13.6919 30.939L14.0468 30.9884C14.4513 31.0449 14.6429 31.1509 14.6429 31.3416C14.6429 31.6029 14.3732 31.7513 13.8693 31.7513C13.464 31.7629 13.0666 31.6385 12.7409 31.3981L12.386 31.9702C12.816 32.269 13.331 32.4225 13.8552 32.4082C14.8346 32.4082 15.4023 31.949 15.4023 31.3063C15.4023 30.6635 14.9552 30.4022 14.2171 30.2962L13.8622 30.2468C13.5429 30.2044 13.2874 30.1408 13.2874 29.9148C13.2874 29.6888 13.5287 29.5192 13.9332 29.5192C14.3071 29.5236 14.6737 29.6233 14.9978 29.8088L15.3243 29.2155ZM35.0934 28.8623C34.9134 28.8571 34.7354 28.9002 34.578 28.9872C34.4206 29.0743 34.2897 29.2019 34.1991 29.3568V28.9471H33.4681V32.3234H34.2062V30.4304C34.2062 29.8724 34.4475 29.5616 34.916 29.5616C35.0738 29.5595 35.2306 29.5883 35.3773 29.6464L35.6044 28.94C35.4358 28.88 35.2582 28.849 35.0792 28.8482L35.0934 28.8623ZM25.5832 30.6282C25.5744 30.8655 25.6155 31.1019 25.7038 31.3225C25.7921 31.543 25.9258 31.7428 26.0961 31.909C26.2665 32.0752 26.4698 32.2042 26.6931 32.2878C26.9164 32.3713 27.1548 32.4075 27.393 32.394C27.8361 32.4165 28.2717 32.2728 28.6137 31.9914L28.2588 31.3981C28.0037 31.5917 27.6925 31.6983 27.3717 31.7018C27.0989 31.6799 26.8443 31.5565 26.6587 31.3562C26.4732 31.156 26.3701 30.8935 26.3701 30.6211C26.3701 30.3487 26.4732 30.0863 26.6587 29.886C26.8443 29.6858 27.0989 29.5624 27.3717 29.5404C27.6925 29.544 28.0037 29.6505 28.2588 29.8442L28.6137 29.2508C28.2717 28.9694 27.8361 28.8258 27.393 28.8482C27.1548 28.8348 26.9164 28.871 26.6931 28.9545C26.4698 29.038 26.2665 29.167 26.0961 29.3332C25.9258 29.4994 25.7921 29.6992 25.7038 29.9198C25.6155 30.1403 25.5744 30.3768 25.5832 30.6141V30.6282ZM32.4958 30.6282V28.9471H31.7577V29.3568C31.6324 29.1963 31.4705 29.0677 31.2854 28.9818C31.1003 28.8958 30.8973 28.8549 30.6932 28.8623C30.2226 28.8623 29.7713 29.0484 29.4385 29.3796C29.1058 29.7107 28.9189 30.1599 28.9189 30.6282C28.9189 31.0965 29.1058 31.5457 29.4385 31.8768C29.7713 32.208 30.2226 32.394 30.6932 32.394C30.8973 32.4015 31.1003 32.3606 31.2854 32.2746C31.4705 32.1887 31.6324 32.0601 31.7577 31.8996V32.3093H32.4958V30.6282ZM29.7492 30.6282C29.761 30.4295 29.8309 30.2385 29.9504 30.0788C30.0698 29.9191 30.2336 29.7976 30.4215 29.7294C30.6094 29.6612 30.8133 29.6491 31.008 29.6947C31.2027 29.7404 31.3798 29.8417 31.5174 29.9862C31.655 30.1307 31.7471 30.3121 31.7824 30.508C31.8177 30.704 31.7947 30.9059 31.7162 31.089C31.6376 31.2721 31.507 31.4283 31.3403 31.5385C31.1737 31.6486 30.9783 31.7078 30.7783 31.7089C30.6378 31.7107 30.4985 31.6835 30.369 31.629C30.2396 31.5746 30.1229 31.4941 30.0262 31.3926C29.9296 31.2911 29.8551 31.1708 29.8074 31.0392C29.7597 30.9077 29.7399 30.7677 29.7492 30.6282ZM20.8423 28.8623C20.3717 28.8689 19.923 29.0612 19.595 29.397C19.2669 29.7328 19.0863 30.1846 19.0929 30.6529C19.0994 31.1212 19.2927 31.5678 19.6301 31.8943C19.9675 32.2208 20.4214 32.4006 20.892 32.394C21.4025 32.4201 21.9046 32.2565 22.3008 31.9349L21.9459 31.391C21.6657 31.6147 21.3186 31.739 20.9594 31.7442C20.7154 31.7651 20.4729 31.6904 20.2833 31.5361C20.0938 31.3818 19.9723 31.1599 19.9445 30.9178H22.464C22.464 30.826 22.464 30.7341 22.464 30.6353C22.464 29.5757 21.804 28.8694 20.8529 28.8694L20.8423 28.8623ZM20.8423 29.5192C20.9527 29.5169 21.0626 29.5362 21.1655 29.5761C21.2685 29.6161 21.3625 29.6758 21.4422 29.7519C21.522 29.8279 21.5859 29.9189 21.6303 30.0196C21.6747 30.1203 21.6987 30.2287 21.7011 30.3386H19.9268C19.9396 30.1119 20.0411 29.8992 20.2096 29.746C20.3781 29.5929 20.6001 29.5115 20.8281 29.5192H20.8423ZM39.3339 30.6353V27.5909H38.6242V29.3568C38.4989 29.1963 38.337 29.0677 38.1519 28.9818C37.9668 28.8958 37.7638 28.8549 37.5597 28.8623C37.0891 28.8623 36.6378 29.0484 36.305 29.3796C35.9723 29.7107 35.7854 30.1599 35.7854 30.6282C35.7854 31.0965 35.9723 31.5457 36.305 31.8768C36.6378 32.208 37.0891 32.394 37.5597 32.394C37.7638 32.4015 37.9668 32.3606 38.1519 32.2746C38.337 32.1887 38.4989 32.0601 38.6242 31.8996V32.3093H39.3339V30.6353ZM40.5653 31.8325C40.6114 31.8319 40.6572 31.8403 40.7001 31.8572C40.7409 31.8738 40.7782 31.8977 40.8102 31.9278C40.8413 31.9583 40.8666 31.9942 40.8847 32.0338C40.9026 32.075 40.9119 32.1195 40.9119 32.1645C40.9119 32.2094 40.9026 32.2539 40.8847 32.2951C40.8666 32.3347 40.8413 32.3706 40.8102 32.4011C40.7782 32.4312 40.7409 32.4552 40.7001 32.4717C40.6577 32.4904 40.6117 32.5 40.5653 32.5C40.498 32.4995 40.4323 32.48 40.3757 32.4437C40.3192 32.4074 40.2742 32.3559 40.2459 32.2951C40.2282 32.2538 40.219 32.2094 40.219 32.1645C40.219 32.1195 40.2282 32.0751 40.2459 32.0338C40.264 31.9942 40.2893 31.9583 40.3204 31.9278C40.3524 31.8977 40.3897 31.8738 40.4304 31.8572C40.4767 31.8389 40.5262 31.8305 40.5759 31.8325H40.5653ZM40.5653 32.4293C40.6007 32.4296 40.6358 32.4223 40.6682 32.4082C40.6987 32.3946 40.7264 32.3754 40.7498 32.3517C40.7942 32.3035 40.8188 32.2404 40.8188 32.1751C40.8188 32.1097 40.7942 32.0467 40.7498 31.9985C40.7265 31.9746 40.6988 31.9555 40.6682 31.942C40.6357 31.9279 40.6007 31.9207 40.5653 31.9208C40.5299 31.921 40.4949 31.9282 40.4624 31.942C40.4305 31.955 40.4016 31.9742 40.3772 31.9985C40.3328 32.0467 40.3082 32.1097 40.3082 32.1751C40.3082 32.2404 40.3328 32.3035 40.3772 32.3517C40.4016 32.3759 40.4305 32.3951 40.4624 32.4082C40.4982 32.4235 40.537 32.4308 40.5759 32.4293H40.5653ZM40.5866 32.0091C40.6197 32.0075 40.6524 32.0175 40.6788 32.0373C40.6897 32.0463 40.6983 32.0577 40.7038 32.0706C40.7094 32.0835 40.7118 32.0975 40.7108 32.1115C40.7113 32.1232 40.7094 32.1349 40.7051 32.1459C40.7008 32.1568 40.6943 32.1668 40.6859 32.1751C40.6654 32.1937 40.6391 32.2049 40.6114 32.2069L40.7143 32.3234H40.6327L40.5369 32.2069H40.505V32.3234H40.4375V32.0126L40.5866 32.0091ZM40.5085 32.0691V32.1539H40.5866C40.6005 32.158 40.6153 32.158 40.6292 32.1539C40.6317 32.1489 40.633 32.1435 40.633 32.138C40.633 32.1325 40.6317 32.127 40.6292 32.1221C40.6317 32.1172 40.633 32.1117 40.633 32.1062C40.633 32.1007 40.6317 32.0952 40.6292 32.0903C40.6153 32.0862 40.6005 32.0862 40.5866 32.0903L40.5085 32.0691ZM36.6051 30.6353C36.6169 30.4365 36.6868 30.2455 36.8062 30.0858C36.9257 29.9262 37.0894 29.8047 37.2773 29.7365C37.4653 29.6682 37.6691 29.6562 37.8638 29.7018C38.0586 29.7474 38.2356 29.8487 38.3732 29.9932C38.5108 30.1377 38.6029 30.3191 38.6383 30.5151C38.6736 30.711 38.6506 30.913 38.572 31.0961C38.4935 31.2792 38.3628 31.4354 38.1962 31.5455C38.0296 31.6557 37.8342 31.7149 37.6342 31.7159C37.4937 31.7177 37.3543 31.6905 37.2249 31.6361C37.0954 31.5817 36.9787 31.5012 36.8821 31.3997C36.7854 31.2982 36.7109 31.1778 36.6632 31.0463C36.6156 30.9147 36.5958 30.7748 36.6051 30.6353ZM11.6834 30.6353V28.9471H10.9453V29.3568C10.82 29.1963 10.6581 29.0677 10.473 28.9818C10.2879 28.8958 10.0849 28.8549 9.88074 28.8623C9.41017 28.8623 8.95888 29.0484 8.62613 29.3796C8.29339 29.7107 8.10646 30.1599 8.10646 30.6282C8.10646 31.0965 8.29339 31.5457 8.62613 31.8768C8.95888 32.208 9.41017 32.394 9.88074 32.394C10.0849 32.4015 10.2879 32.3606 10.473 32.2746C10.6581 32.1887 10.82 32.0601 10.9453 31.8996V32.3093H11.6834V30.6353ZM8.93682 30.6353C8.94859 30.4365 9.0185 30.2455 9.13795 30.0858C9.2574 29.9262 9.42116 29.8047 9.60908 29.7365C9.797 29.6682 10.0009 29.6562 10.1956 29.7018C10.3903 29.7474 10.5673 29.8487 10.7049 29.9932C10.8425 30.1377 10.9347 30.3191 10.97 30.5151C11.0053 30.711 10.9823 30.913 10.9038 31.0961C10.8252 31.2792 10.6946 31.4354 10.5279 31.5455C10.3613 31.6557 10.1659 31.7149 9.96591 31.7159C9.82481 31.7187 9.68468 31.6922 9.5544 31.6383C9.42412 31.5843 9.30654 31.5039 9.20912 31.4023C9.11169 31.3007 9.03654 31.18 8.98845 31.048C8.94035 30.9159 8.92036 30.7754 8.92973 30.6353H8.93682Z" fill="#231F20"/>
<path d="M26.2575 3.21912H15.0795V23.212H26.2575V3.21912Z" fill="#FF5F00"/>
<path d="M15.7893 13.2189C15.7872 11.2932 16.2255 9.3922 17.0708 7.65997C17.9162 5.92775 19.1465 4.40967 20.6686 3.22069C18.784 1.74664 16.5207 0.830018 14.1374 0.575582C11.7541 0.321146 9.347 0.739161 7.19113 1.78185C5.03527 2.82454 3.21764 4.44985 1.946 6.472C0.674358 8.49415 0 10.8316 0 13.2171C0 15.6027 0.674358 17.9401 1.946 19.9622C3.21764 21.9844 5.03527 23.6097 7.19113 24.6524C9.347 25.6951 11.7541 26.1131 14.1374 25.8586C16.5207 25.6042 18.784 24.6876 20.6686 23.2135C19.147 22.0249 17.9169 20.5074 17.0716 18.7758C16.2263 17.0443 15.7878 15.144 15.7893 13.2189Z" fill="#EB001B"/>
<path d="M41.3391 13.2173C41.339 15.603 40.6645 17.9406 39.3927 19.9628C38.1208 21.985 36.3029 23.6103 34.1468 24.6529C31.9906 25.6954 29.5833 26.1131 27.1998 25.8583C24.8164 25.6035 22.5531 24.6865 20.6686 23.212C22.1897 22.0223 23.4193 20.5044 24.2649 18.7727C25.1105 17.041 25.5498 15.1409 25.5498 13.2155C25.5498 11.2902 25.1105 9.39004 24.2649 7.65837C23.4193 5.92671 22.1897 4.40878 20.6686 3.21911C22.5531 1.7446 24.8164 0.82753 27.1998 0.572729C29.5833 0.317927 31.9906 0.735673 34.1468 1.77822C36.3029 2.82076 38.1208 4.44603 39.3927 6.46826C40.6645 8.49048 41.339 10.828 41.3391 13.2138V13.2173Z" fill="#F79E1B"/>
<path d="M40.1185 21.0931V20.6834H40.2853V20.5986H39.863V20.6834H40.044V21.0931H40.1185ZM40.9383 21.0931V20.5986H40.8105L40.6615 20.9518L40.5124 20.5986H40.3989V21.0931H40.4911V20.7222L40.6295 21.0436H40.7253L40.8637 20.7222V21.0966L40.9383 21.0931Z" fill="#F79E1B"/>
</g>
<path d="M91.9259 4.94202L87.037 27.3523H92.9629L97.7036 4.94202H91.9259Z" fill="#1B226F"/>
<path d="M83.3334 4.9422L77.2592 20.1281L74.7407 7.15374C74.4444 5.67938 73.2592 4.9422 72.0741 4.9422H62.1481L62 5.53198C64.0741 5.97429 66.2963 6.71145 67.7778 7.44863C68.6667 7.89094 68.8148 8.33323 69.1111 9.36528L73.7037 27.2051H79.9259L89.4074 4.7948H83.3334V4.9422Z" fill="#1B226F"/>
<path d="M129.407 4.94202H124.37C123.185 4.94202 122.296 5.53182 121.852 6.56387L113.111 27.3523H119.185L120.37 23.9613H127.778L128.519 27.3523H133.852L129.407 4.94202ZM122.296 19.3907L125.407 10.987L127.185 19.3907H122.296Z" fill="#1B226F"/>
<path d="M105.407 11.1346C105.407 10.3974 106.148 9.51285 107.926 9.21797C108.815 9.07054 111.037 9.07056 113.704 10.25L114.741 5.53207C113.407 5.08976 111.482 4.5 109.259 4.5C103.482 4.5 99.4815 7.59616 99.4815 11.8718C99.4815 15.1154 102.445 16.8846 104.519 17.9167C106.741 18.9487 107.482 19.6859 107.482 20.718C107.482 22.1923 105.704 22.9295 103.926 22.9295C100.963 22.9295 99.3334 22.1923 98 21.4552L96.963 26.3205C98.2963 26.9103 100.815 27.5 103.482 27.5C109.556 27.5 113.556 24.5513 113.556 19.8334C113.556 14.2308 105.259 13.7885 105.407 11.1346Z" fill="#1B226F"/>
<defs>
<clipPath id="clip0_2_829">
<rect width="42" height="32" fill="white" transform="translate(0 0.5)"/>
</clipPath>
</defs>
</svg>
